<?xml version="1.0" encoding="UTF-8" standalone="no"?>
<svg
   width="3875.3706"
   height="778.89325"
   xml:space="preserve"
   overflow="hidden"
   version="1.1"
   id="svg15"
   sodipodi:docname="logo_icon-text_dark.svg"
   inkscape:version="1.4.2 (ebf0e940, 2025-05-08)"
   xmlns:inkscape="http://www.inkscape.org/namespaces/inkscape"
   xmlns:sodipodi="http://sodipodi.sourceforge.net/DTD/sodipodi-0.dtd"
   xmlns="http://www.w3.org/2000/svg"
   xmlns:svg="http://www.w3.org/2000/svg"><defs
     id="defs15" /><sodipodi:namedview
     id="namedview15"
     pagecolor="#ffffff"
     bordercolor="#000000"
     borderopacity="0.25"
     inkscape:showpageshadow="2"
     inkscape:pageopacity="0.0"
     inkscape:pagecheckerboard="0"
     inkscape:deskcolor="#d1d1d1"
     inkscape:zoom="0.14837948"
     inkscape:cx="1182.7781"
     inkscape:cy="-74.134239"
     inkscape:window-width="1712"
     inkscape:window-height="1041"
     inkscape:window-x="0"
     inkscape:window-y="66"
     inkscape:window-maximized="0"
     inkscape:current-layer="svg15" /><g
     transform="translate(-1481.106,-1302.9977)"
     id="g15"><g
       id="g14"><text
         fill="#8679d6"
         fill-opacity="1"
         font-family="'Rajdhani Medium', 'Rajdhani Medium_MSFontService', sans-serif"
         font-style="normal"
         font-variant="normal"
         font-weight="500"
         font-stretch="normal"
         font-size="839px"
         text-anchor="start"
         direction="ltr"
         writing-mode="lr-tb"
         unicode-bidi="normal"
         text-decoration="none"
         transform="translate(2152.1,1926)"
         id="text1"
         style="text-decoration:none;text-decoration-line:none">NEO</text><text
         fill="#f5f8ff"
         fill-opacity="1"
         font-family="'Rajdhani SemiBold', 'Rajdhani SemiBold_MSFontService', sans-serif"
         font-style="normal"
         font-variant="normal"
         font-weight="600"
         font-stretch="normal"
         font-size="839px"
         text-anchor="start"
         direction="ltr"
         writing-mode="lr-tb"
         unicode-bidi="normal"
         text-decoration="none"
         transform="translate(3506.48,1926)"
         id="text2"
         style="text-decoration:none;text-decoration-line:none">WATT</text><g
         id="g13"><g
           id="g12"><g
             id="g11"><path
               d="m 1567.68,1059.5 c -134.15,0 -262.71,-53.74 -356.94,-149.212 l 356.94,-352.337 z"
               stroke="#f5f8ff"
               stroke-width="22.119"
               stroke-linecap="butt"
               stroke-linejoin="miter"
               stroke-miterlimit="8"
               stroke-opacity="1"
               fill="none"
               fill-rule="evenodd"
               transform="matrix(1,0,0,1.00181,413.866,842.091)"
               id="path2" /><path
               d="m 1341.91,778.53 c -59.87,-59.789 -93.45,-140.979 -93.29,-225.597 l 317.96,0.594 z"
               stroke="#f5f8ff"
               stroke-width="22.119"
               stroke-linecap="butt"
               stroke-linejoin="miter"
               stroke-miterlimit="8"
               stroke-opacity="1"
               fill="none"
               fill-rule="evenodd"
               transform="matrix(1,0,0,1.00181,413.866,842.091)"
               id="path3" /><path
               d="M 0,0 1.74165e-4,626.994"
               stroke="#f5f8ff"
               stroke-width="44.2379"
               stroke-linecap="butt"
               stroke-linejoin="miter"
               stroke-miterlimit="8"
               stroke-opacity="1"
               fill="none"
               fill-rule="evenodd"
               transform="matrix(1,0,0,-1.00181,1980.99,2025.31)"
               id="path4" /><path
               d="M 1123.64,554.08 H 1567"
               stroke="#f5f8ff"
               stroke-width="44.2379"
               stroke-linecap="butt"
               stroke-linejoin="miter"
               stroke-miterlimit="8"
               stroke-opacity="1"
               fill="none"
               fill-rule="evenodd"
               transform="matrix(1,0,0,1.00181,413.866,842.091)"
               id="path5" /><path
               d="M 0,0 443.351,443.351"
               stroke="#f5f8ff"
               stroke-width="44.2379"
               stroke-linecap="butt"
               stroke-linejoin="miter"
               stroke-miterlimit="8"
               stroke-opacity="1"
               fill="none"
               fill-rule="evenodd"
               transform="matrix(1,0,0,-1.00181,1537.51,1841.33)"
               id="path6" /><path
               d="m 1473.12,554.08 c 0,-51.918 42.1,-94.006 94.01,-94.006 51.91,0 94,42.088 94,94.006 0,51.917 -42.09,94.006 -94,94.006 -51.91,0 -94.01,-42.089 -94.01,-94.006 z"
               fill="#f5f8ff"
               fill-rule="evenodd"
               fill-opacity="1"
               transform="matrix(1,0,0,1.00181,413.866,842.091)"
               id="path7" /><path
               d="m 1067.24,554.08 c 0,-31.151 25.5,-56.403 56.96,-56.403 31.45,0 56.95,25.252 56.95,56.403 0,31.151 -25.5,56.403 -56.95,56.403 -31.46,0 -56.96,-25.252 -56.96,-56.403 z"
               fill="#f5f8ff"
               fill-rule="evenodd"
               fill-opacity="1"
               transform="matrix(1,0,0,1.00181,413.866,842.091)"
               id="path8" /><path
               d="m 1510.72,554.08 c 0,-31.151 25.25,-56.403 56.41,-56.403 31.15,0 56.4,25.252 56.4,56.403 0,31.151 -25.25,56.403 -56.4,56.403 -31.16,0 -56.41,-25.252 -56.41,-56.403 z"
               fill="#8679d6"
               fill-rule="evenodd"
               fill-opacity="1"
               transform="matrix(1,0,0,1.00181,413.866,842.091)"
               id="path9" /><path
               d="m 1067.24,996.459 c 0,-31.151 25.5,-56.403 56.96,-56.403 31.45,0 56.95,25.252 56.95,56.403 0,31.151 -25.5,56.401 -56.95,56.401 -31.46,0 -56.96,-25.25 -56.96,-56.401 z"
               fill="#f5f8ff"
               fill-rule="evenodd"
               fill-opacity="1"
               transform="matrix(1,0,0,1.00181,413.866,842.091)"
               id="path10" /><path
               d="m 1510.72,1181.15 c 0,-31.15 25.25,-56.4 56.41,-56.4 31.15,0 56.4,25.25 56.4,56.4 0,31.16 -25.25,56.41 -56.4,56.41 -31.16,0 -56.41,-25.25 -56.41,-56.41 z"
               fill="#f5f8ff"
               fill-rule="evenodd"
               fill-opacity="1"
               transform="matrix(1,0,0,1.00181,413.866,842.091)"
               id="path11" /></g></g></g></g></g></svg>
